<svg xmlns="http://www.w3.org/2000/svg" xmlns:xlink="http://www.w3.org/1999/xlink" version="1.1">
	<symbol id="iconArmor" viewBox="0 0 300 480">
    	<title>Armor</title>
		<path d="M150,0c25,24,100,72,150,72v96c0,96-75,240-150,312C75,408,0,264,0,168V72C50,72,125,24,150,0z"/>
  	</symbol>

  	<symbol id="iconPotion" viewBox="0 0 512 512">
    	<title>Potion</title>
		<g transform="translate(-13.699951171875,-18.199996948242188)">
			<path d="M190.6,21.3L208,83.8h98.6l17.4-62.6C323.9,21.3,190.6,21.3,190.6,21.3z M213.2,102.5l0,0.1h-23.1
		c-23.8,0-22.5,45.6,0,45.6h21v59.1c-67.4,19.8-116.4,81.9-116.4,155.8c0,53.7,26,101.5,66.2,131.1h192.6
		c40.2-29.6,66.8-77.4,66.8-131.1c0-54.7-27.2-103-68.7-132.4c0,0,0,0-0.1-0.1c-55.3-29.2-128.5-4.3-164.5,57.9
		c-31,53.6-17.1,119.1,28.6,145.6c31.8,18.5,76.7,9.6,96.9-27.4c4.7-8.5,5.4-21.3,2-33.6c-3.4-12.3-10.8-23.9-19.8-30.2
		c-11.5-8.1-34.8-8-48,1.3l-10.8-15.3c20.5-14.6,49.8-15.3,69.6-1.4v0c13.5,9.5,22.6,24.6,27,40.5c4.4,16,4.2,33.3-3.6,47.5
		c-25.2,46.1-82,58.3-122.7,34.6c-55.6-32.4-70.9-109.7-35.3-171.1c19.5-33.7,49.1-57.9,81.8-70.2h51v-60.7h19.4
		c26,0,24.4-45.6,0-45.6h-21.6l0-0.1H213.2z"/>
		</g>
  	</symbol>

	<symbol id="iconRing" viewBox="0 0 512 512">
    	<title>Ring</title>
		<g transform="translate(-13.699951171875,-18.199996948242188)">
		<path d="M255.2,123c-68.7,0-137.1,18.9-182.9,55.3c0.2,14.4,1.8,35.6,9.3,48.2c110.6-60.3,236.4-60.3,347.1,0
		c7.5-12.6,9.1-33.9,9.3-48.2C392.3,141.9,323.8,123,255.2,123z M455,199.1c-0.3,3-0.7,6-1.2,9.1c-2.2,12.9-6.2,26.5-16,36
		c-14.4,18.6-40.8,30.5-72.9,38.6C332.4,291,293.8,295,255.2,295c-38.6,0-77.2-4-109.7-12.3c-31.9-8.1-58.2-19.9-72.6-38.4
		c-12-12-16.2-28.8-17.8-43.9c-13.7,27.3-11.5,62.1,0.7,98.6C70,342,129.4,389,255.2,389s185.2-47,199.5-89.8l0.1-0.3l0.1-0.3
		C470,261.9,470.4,226.6,455,199.1L455,199.1z"/>
		</g>
	</symbol>

	<symbol id="iconRing" viewBox="0 0 512 512">
    	<title>Ring</title>
		<g transform="translate(-13.699951171875,-18.199996948242188)">
			<path d="M255.2,123c-68.7,0-137.1,18.9-182.9,55.3c0.2,14.4,1.8,35.6,9.3,48.2c110.6-60.3,236.4-60.3,347.1,0
		c7.5-12.6,9.1-33.9,9.3-48.2C392.3,141.9,323.8,123,255.2,123z M455,199.1c-0.3,3-0.7,6-1.2,9.1c-2.2,12.9-6.2,26.5-16,36
		c-14.4,18.6-40.8,30.5-72.9,38.6C332.4,291,293.8,295,255.2,295c-38.6,0-77.2-4-109.7-12.3c-31.9-8.1-58.2-19.9-72.6-38.4
		c-12-12-16.2-28.8-17.8-43.9c-13.7,27.3-11.5,62.1,0.7,98.6C70,342,129.4,389,255.2,389s185.2-47,199.5-89.8l0.1-0.3l0.1-0.3
		C470,261.9,470.4,226.6,455,199.1L455,199.1z"/>
		</g>
	</symbol>

	<symbol id="iconRod" viewBox="0 0 512 512">
    	<title>Rod</title>
		<g>
			<polygon points="310.3,147.1 366.4,219.5 385.9,204.4 329.9,132  "/>
			<path d="M482.8,107.2l-34.5-44.6c-5.9-7.7-17-9.1-24.7-3.2L342,122.6l56,72.4l81.6-63.2   C487.3,125.9,488.7,114.8,482.8,107.2z"/>
			<polygon points="0,387.2 0,503 354.8,228.5 298.7,156.1  "/>
		</g>
	</symbol>

	<symbol id="iconScroll" viewBox="0 0 512 512">
    	<title>Scroll</title>
		<g transform="translate(-13.699951171875,-18.199996948242188)">
			<path d="M103.4,17.8c-1.1,0-2.2,0-3.3,0.1c-2.5,0.1-5.1,0.3-7.6,0.7c-20.2,2.7-39.2,13.7-52.3,33.7
		c-24.6,37.4,2.2,98,56.6,98c0.5,0,1.1,0,1.6,0v0.7h60.6c-10.8,32-30.3,66.6-52.4,101.4c-2.2,3.4-4.3,6.9-6.3,10.4l34.9,35.7
		L78.8,308C46.1,393.9,51.4,490,127.1,490v0l9.3,0.1c23.8-0.6,46.7-4.3,61.3-12.9c4.2-2.5,7.6-5.2,10.5-8.4h-32.4
		c-20.3,6-40.8-6.9-47.4-25.9c-9-25.8,7.5-52.4,31.9-60.5c5.8-1.9,11.7-2.8,17.6-2.8v-0.4h178.3c-0.6-44.4,16.4-90.1,49.2-126
		c24-26.2,42-60.6,51.3-94.8l-41.2-24.9l38.3-6.9l-43.4-25.8h0l0,0l0,0l52.1-8.8c-5.2-39.1-28.8-68.1-77.4-68.1
		c-43.9,8.5-162.9,11.6-235.7,4.8C134.5,21.7,118.8,17.8,103.4,17.8z M103.9,36.5c13.1,0,27.4,3.8,41.2,10.6l0-0.1
		c4.7,4.7,8.5,9.7,11.7,15H82.9l10.6,14.8c10.6,14.8,19.8,32,21.1,42c0.6,5-0.1,7.2-1.8,8.8c-1.7,1.7-6.2,3.9-16,3.9
		c-40.6,0-56.9-45-41-69.1C66.2,46.6,79.6,39.2,95,37.1C97.9,36.7,100.9,36.5,103.9,36.5z M118.5,80.8h46.3
		c4.3,15.7,3.7,33.1-0.5,51.5h-32.7c1.9-5,2.3-10.6,1.6-15.8C131.6,104.6,125.7,92.5,118.5,80.8L118.5,80.8z M220.1,397.9
		c6.4,6.8,11.2,15.3,13.4,24.9c3.8,16.7,3.1,31.2-1.8,43.2c-4.5,11.2-12.6,19.8-22.3,26h237.2c14.4,0,24.9-5.7,32.2-14.3
		c7.3-8.6,11.2-20.5,10.7-32.4c-0.2-4.5-1-8.9-2.4-13.2l-69.9-8.2l42-20.5c-8.3-3.4-18.6-5.5-31.4-5.5L220.1,397.9L220.1,397.9z
		 M177.4,398.4c-1.2,0-2.3,0-3.5,0.2c-2.6,0.2-5.3,0.8-7.8,1.6c-15.1,5-25.3,21.5-20.1,36.6c3.7,10.6,15.3,17.7,25.7,13.9l1.6-0.6
		h43.4c0.9-6.4,0.8-13.9-1.4-23.2C211.5,410.6,194.7,398.4,177.4,398.4L177.4,398.4z"/>
		</g>
	</symbol>

	<symbol id="iconStaff" viewBox="0 0 512 512">
    	<title>Staff</title>
		<g transform="translate(-13.699951171875,-18.199996948242188)">
			<path d="M335.7,19.5c-24.5,0.1-49,5.2-71.1,15.6c-22.5,10.6-43.1,34.2-58.4,62.6C191,126.1,181,159,178.5,186.5
		C171,268.6,126.6,341.8,18.7,439l-0.2,21.4c70.7-57,121.4-113.8,157.8-170.5l0.1,0c-9.3,32.5-22.6,63.2-43.6,88
		c-31.5,35.6-69.2,71.1-114.5,106.5l-0.1,8.3l25,0.1h0.5l1.3-1.2c24.4-16.5,48.6-31.5,72.6-41.5l0.2,0.2l-46.4,42.5l28.9,0.1
		c48.4-41.7,94.7-90.6,129.6-137c33.6-44.7,56-87.3,60.7-116.8c-1.3-2.3-2.6-4.6-3.7-7.1c-18.8-42.1-4.3-96.4,40.2-116.1
		c32.7-14.4,74.9-3.2,90.4,31.3c0.1,0.3,0.3,0.6,0.5,1c13.3,24.1,6.2,49.5-9.3,62c-7.9,6.3-18.4,9.5-28.8,6.6
		c-10.3-3-19-11.8-24.5-25.1l17.3-7.1c4,9.8,8.7,13.1,12.4,14.2c3.7,1.1,7.8,0.1,11.9-3.2c8.2-6.6,14.3-21.9,4.4-39l-0.3-0.5
		l-0.2-0.5c-10.7-24.8-42-33.3-66.2-22.6c-34.1,15-45.6,58.1-30.7,91.3c20.5,45.8,78,61.2,122.4,40.9
		c60.2-27.5,80.1-103.3,53.1-161.8C454.7,49.9,398.1,21,340.6,19.6C338.9,19.6,337.3,19.5,335.7,19.5L335.7,19.5z M309.9,46.3
		c3.2,0,6.4,0.3,9.4,0.9c10.3,1.9,19.9,6.8,29,13.3C317.7,55,290,65,267.6,85.2c-22.4,20.2-39.2,50.6-45.8,84.7
		c-4.7-11.4-7.2-21.5-6.7-31.7c0.3-6.3,1.7-13,4.8-20.2c9.1-18,21-33.9,35.2-46.7c7.8-7,16.4-13.1,25.5-17.9
		C291.6,48.2,301.1,46.2,309.9,46.3L309.9,46.3z M432.8,108.6c22.6,13.2,34.4,41.9,32.9,70.7c-0.6,11.4-3.5,23-8.9,33.6
		c-12.5,18.9-35.5,25.5-50,20.9l-0.1-0.3c27.9-10.4,39.2-32.4,40.3-55.2c0.1-2.5,0.1-5,0-7.5c1.4-13.3-0.4-28.8-5.5-43.4
		C439.4,120.9,436.5,114.5,432.8,108.6L432.8,108.6L432.8,108.6z M297.3,109.9c-21,19.3-29.4,35.3-33.3,51.3
		c-3.8,16-2.8,32.8-2.9,52.9c-0.1,23.8-2.6,51.5-18.4,85.7c0,0,0,0,0,0c-21.1,26.8-45.3,52.3-68.9,67.4l-0.1,0
		c64.2-71.5,68.5-114.8,68.8-153.2c0.1-19.2-1.3-37.6,3.4-57.1c0.6-2.4,1.2-4.7,2-7.1h0c8.1-17,16.6-26.1,25.5-31.6
		C280.6,113.6,288.4,111.4,297.3,109.9L297.3,109.9z"/>
		</g>
	</symbol>

	<symbol id="iconWand" viewBox="0 0 512 512">
    	<title>Wand</title>
		<path d="M255.2,4l11.7,114.9L167.1,177l97.8,21.1c-9.6,8.4-20.2,19-31.3,30.1l0,0L4.9,454.2v19.4H37l222.6-219.4
	c10.3-10.3,18.9-19.5,25.8-27.8l18.9,87.7l58.1-99.9l114.9,11.7l-77-86.1L447,34.3L341.3,81L255.2,4L255.2,4z"/>
	</symbol>

	<symbol id="iconWondrous" viewBox="0 0 512 512">
    	<title>Wondrous</title>
		<g transform="translate(-13.699951171875,-18.199996948242188)">
			<path d="M253.9,16c0,0-0.1,5.6,0,14.5C254.1,21.6,253.9,16,253.9,16z M253.9,30.5c-0.5,35.4-4.8,125.1-36.6,138.3
		c-31.4,13-95-50.7-120.3-77.9c24.6,27.9,82.1,98,69.1,129.4C153,252,65.3,256.3,30.4,256.8c34.9,0.4,122.6,4.7,135.8,36.5
		C179.4,325.1,120,391,96,415.8c24.5-24.2,89.5-83.9,121.3-70.7c31.8,13.2,36.1,101.7,36.6,136.6c0.5-34.9,4.7-123.5,36.6-136.6
		c32.3-13.3,106.2,48.2,132.8,71.7c-26-24.1-94.3-91.4-80.9-123.7c13.1-31.5,101.9-36,138.1-36.5c-36.2-0.5-125.1-4.9-138.1-36.4
		c-13.2-31.9,53.3-103.7,79.9-130.7c-27.3,26.4-100,92.4-131.9,79.2C258.7,155.6,254.4,65.9,253.9,30.5L253.9,30.5z M422.4,89.6
		c6.7-6.5,10.7-10.7,10.7-10.7S428.9,83,422.4,89.6z M480.6,256.8c9.4,0.1,15.4,0,15.4,0S490,256.6,480.6,256.8L480.6,256.8z
		 M423.3,416.9c6,5.6,9.8,8.8,9.8,8.8S429.5,422.3,423.3,416.9L423.3,416.9z M253.9,481.8c-0.1,8.7,0,14.3,0,14.3
		S254.1,490.5,253.9,481.8z M96,415.8c-6.1,6-9.8,9.9-9.8,9.9S90.1,422,96,415.8L96,415.8z M30.4,256.8c-8.8-0.1-14.4,0-14.4,0
		S21.6,256.9,30.4,256.8z M97.1,90.9c-6.5-7.3-10.8-11.9-10.8-11.9S90.4,83.7,97.1,90.9z M333.7,68.3c0,0-0.2-0.1-27.3,29.4
		c-8.6,9.3-13.2,35.2-1.5,40.1c11.8,4.9,27-16.8,27.4-29.4C333.5,68.3,333.7,68.3,333.7,68.3L333.7,68.3z M178.2,68.3
		c0,0-0.2,0.1,1.4,40.1c0.5,12.6,15.6,34.2,27.3,29.3c11.8-4.9,7.3-30.9-1.4-40.1C178.1,68.5,178.2,68.3,178.2,68.3L178.2,68.3z
		 M443.7,178.3c0,0,0,0.3-40.1,1.4c-3.2,0.1-6.9,1.1-10.6,2.8c-11.2,5-22.4,15.7-18.8,24.6c4.9,11.8,30.8,7.1,40.1-1.4
		C443.8,178.5,443.7,178.3,443.7,178.3L443.7,178.3z M68.3,178.3c0,0-0.1,0.2,29.4,27.3c9.3,8.6,35.2,13.2,40.1,1.4
		c3.8-9.2-8.6-20.5-20.2-25.2c-3.2-1.3-6.4-2.1-9.2-2.2C68.4,178.5,68.3,178.3,68.3,178.3L68.3,178.3z M255.5,181.5
		c9.7-0.1,19.5,1.8,29,5.7c38,15.7,56,59.3,40.3,97.3c-15.7,38-59.3,56.1-97.3,40.3c-38-15.7-56.1-59.3-40.3-97.3
		C199,199,226.5,181.7,255.5,181.5L255.5,181.5z M256,197.2c-32.5,0-58.8,26.3-58.8,58.8c0,32.5,26.3,58.8,58.8,58.8
		c32.5,0,58.8-26.3,58.8-58.8C314.8,223.5,288.5,197.2,256,197.2z M122.3,297.9c-5.5,0.1-11.6,1.4-16.6,3.6c-3.2,1.4-6,3.1-8,5
		c-29.1,27.5-29.4,27.3-29.4,27.3s0.1,0.2,40.1-1.4c12.6-0.5,34.2-15.6,29.3-27.3C135.6,299.8,129.4,297.8,122.3,297.9L122.3,297.9z
		 M388.4,297.9c-3.2,0.1-6.2,0.6-8.6,1.7c-2.6,1.1-4.5,2.9-5.6,5.4c-4.9,11.8,16.8,26.8,29.4,27.3c40,1.6,40.1,1.4,40.1,1.4
		s-0.2,0.2-29.4-27.3c-2.3-2.2-5.6-4.1-9.4-5.6C399.8,298.9,393.8,297.8,388.4,297.9L388.4,297.9z M203,373.6
		c-1.3,0.1-2.7,0.4-4.1,0.9c-9.6,3.9-18.9,19.3-19.3,29.2c-1.6,40-1.4,40.1-1.4,40.1s-0.1-0.2,27.4-29.3c8.7-9.2,13.2-35.2,1.4-40.1
		C205.7,373.7,204.4,373.5,203,373.6L203,373.6z M308.3,373.6c-1.1,0-2.3,0.3-3.4,0.7c-11.8,4.9-7.1,30.8,1.4,40.1
		c27.1,29.4,27.3,29.3,27.3,29.3s-0.2,0-1.4-40.1C332,392.2,319.4,373.4,308.3,373.6L308.3,373.6z"/>
		</g>
	</symbol>

	<symbol id="iconWeapon" viewBox="0 0 512 512">
    	<title>Weapon</title>
		<g transform="translate(-13.699951171875,-18.199996948242188)">
			<path d="M491.8,22.5l-83.4,14.9L196.6,249.3c3.3,4.8,5.4,10.7,5.4,16.9c0,5.9-1.7,11.4-4.6,16
		c-5.1-1.6-10.4-2.5-16-2.5c-15.7,0-29.9,6.9-39.7,17.8l-9.1-9.1l17.2-17.2c-4.5-5.8-8.9-11.6-13.2-17.6L117.1,273l-13.2-13.2
		l21.8-21.8c-4.4-6.6-8.7-13.3-12.8-20.1l-40.8,40.8l58.3,58.3c-1.6,5.1-2.5,10.5-2.5,16.1c0,7.7,1.7,15,4.6,21.6l-72.1,72.1
		l-14.6-14.6L21,437l14.6,14.6l-8.6,8.6l27.2,27.2l8.6-8.6l14.6,14.6l24.8-24.8L87.6,454l72.2-72.2c6.6,2.9,13.9,4.6,21.5,4.6
		c5.6,0,11-0.9,16.1-2.5l58.4,58.4l40.8-40.8c-6.8-4.1-13.5-8.4-20.1-12.8l-21.8,21.8l-13.2-13.2l19.4-19.4
		c-6-4.3-11.8-8.7-17.6-13.2L226,381.9l-9.2-9.2c10.9-9.8,17.8-24,17.8-39.7c0-5.3-0.8-10.5-2.3-15.4c4.7-3,10.3-4.8,16.3-4.8
		c6.2,0,11.8,1.8,16.5,5L477,105.9L491.8,22.5L491.8,22.5z M425.6,75.5l13.2,13.2L247.1,280.4l-13.2-13.2L425.6,75.5z M181.3,298.4
		c19.3,0,34.7,15.4,34.7,34.7c0,19.3-15.4,34.7-34.7,34.7c-19.3,0-34.7-15.4-34.7-34.7S162,298.4,181.3,298.4L181.3,298.4z"/>
		</g>
	</symbol>
</svg>